<svg width="75" height="82" viewBox="0 0 75 82" fill="none" xmlns="http://www.w3.org/2000/svg">
<path d="M66.5901 14.4493L45.4901 2.18932C43.0206 0.755315 40.2158 0 37.3601 0C34.5045 0 31.6996 0.755315 29.2301 2.18932L8.13013 14.4493C5.64693 15.8959 3.5883 17.9706 2.16117 20.465C0.734044 22.9594 -0.0112794 25.7855 0.000129027 28.6593V53.1793C-0.00224385 56.0459 0.747264 58.863 2.17384 61.3494C3.60042 63.8359 5.65417 65.9046 8.13013 67.3493L29.2301 79.6093C31.6996 81.0433 34.5045 81.7986 37.3601 81.7986C40.2158 81.7986 43.0206 81.0433 45.4901 79.6093L66.5901 67.3493C69.0649 65.9042 71.1172 63.835 72.5421 61.3485C73.967 58.862 74.7145 56.0452 74.7101 53.1793V28.6593C74.7226 25.7865 73.9787 22.961 72.5534 20.4667C71.1281 17.9724 69.0715 15.8971 66.5901 14.4493ZM66.0901 53.1393C66.09 54.4849 65.7372 55.8069 65.0669 56.9737C64.3967 58.1405 63.4324 59.1113 62.2701 59.7893L41.1701 72.0493C40.0119 72.7239 38.6955 73.0793 37.3551 73.0793C36.0148 73.0793 34.6984 72.7239 33.5401 72.0493L12.4401 59.7893C11.2804 59.1093 10.3187 58.1378 9.65031 56.9713C8.98198 55.8047 8.63028 54.4837 8.63013 53.1393V28.6593C8.63128 27.3151 8.98339 25.9945 9.65163 24.8281C10.3199 23.6618 11.2811 22.6901 12.4401 22.0093L33.5401 9.74931C34.6984 9.07471 36.0148 8.71929 37.3551 8.71929C38.6955 8.71929 40.0119 9.07471 41.1701 9.74931L62.2701 22.0093C63.4317 22.6881 64.3955 23.6591 65.0656 24.8257C65.7357 25.9923 66.089 27.3139 66.0901 28.6593V53.1393Z" fill="#282B2A"/>
</svg>
